<svg xmlns="http://www.w3.org/2000/svg" xmlns:xlink="http://www.w3.org/1999/xlink" id="Camada_1" x="0" y="0" version="1.1" viewBox="0 0 1417.3 1417.3" xml:space="preserve" style="enable-background:new 0 0 1417.3 1417.3"><style type="text/css">.st0{fill:#fff}.st1{fill:#005f9f}.st2{opacity:.5;fill:#fff;fill-opacity:.5;enable-background:new}</style><path d="M748.7-25.8L40.1,682.9l708.7,708.7l708.7-708.7L748.7-25.8z" class="st0"/><path d="M748.7,682.9L748.7,682.9L748.7,682.9L748.7,682.9L748.7,682.9z M748.7,1066.5c-212,0-383.6-171.6-383.6-383.6	s171.6-383.6,383.6-383.6s383.6,171.6,383.6,383.6S960.7,1066.5,748.7,1066.5z" class="st1"/><title>Ativo 223</title><path d="M748.7,14.3L80.2,682.9l668.6,668.6l668.6-668.6L748.7,14.3z M748.7,1090.4c-225.2,0-407.5-182.3-407.5-407.5	c0-225.2,182.3-407.5,407.5-407.5s407.5,182.3,407.5,407.5S973.9,1090.4,748.7,1090.4z" class="st1"/><path d="M1055.8,585.7c-0.3,1.3-0.7,2.9-1.1,4.7c-3.1,13.8-9.6,42.7-19.5,44.1c-4,0.6-8.2-3.4-12.8-11.6l-1.1-1.9	c-18.3-32.9-39-70.1-31.9-76C994.9,540.2,1017.3,554,1055.8,585.7z M949.3,666.1c2.3-27.4,2.3-54.9-0.1-82.3	c-1.5-18-2.4-38.9,3.2-40.9c0.3-0.1,0.6-0.2,0.9-0.2c6.9,0,21.7,21.2,26.8,28.4c9.5,14.1,18.3,28.6,26.2,43.7	c2.7,5,5.4,9.9,8.2,14.9c16.3,29.3,2.5,53.5-7.2,65.3v0c-25.5,31.4-41.7,46.3-50.5,46.3c-0.8,0-1.6-0.1-2.4-0.4	C944.5,736.9,946.2,704.7,949.3,666.1L949.3,666.1z M677.5,888c40.7-3.7,80.9-12.3,119.5-25.7c23.4-7.9,47.7-15.2,62.8-15.2	c5-0.7,10,1,13.5,4.5c6.2,8.5-4,29.9-32,67.4c-10.3,12.5-21.5,24.2-33.4,35.2c-40.8,37.7-66.2,28.9-104.4-3.8	c-10.2-8.7-19.9-18.3-29.3-27.6c-2.5-2.4-4.9-4.8-7.4-7.3c-7.3-7.1-14.5-15.1-12.7-19.9C655.5,891.7,663.2,889.2,677.5,888	L677.5,888z M855,803.3c-2.8,19.5-24,35.9-64.8,50.4c-39.6,14.2-81,22.5-123,24.8c-28.8-1.8-43-11.8-63.2-45	c-17-27.7-38-64.7-49.1-105c-20.4-73.4-19.9-117.9,1.6-132.2c5.8-3.6,12.5-5.4,19.3-5.2c42.1,0,113.1,51.9,166.2,94	c8.5,6.8,18.4,13.9,28.8,21.4C812.4,736.7,859.7,771,855,803.3L855,803.3z M468.4,727.7c9.4-76.8,21.1-93.7,29.2-94.4	c0.2,0,0.4,0,0.5,0c7.2,0,19.1,12,35.9,67.4c13.9,48.5,34.2,95,60.2,138.3c11.2,18.1,18.3,30.3,15.3,34.8c-1.8,2.7-7.5,3.2-18.6,1.5	c-16.7-2.4-33.2-6-49.4-10.7c-30.1-34.7-54.9-73.7-73.5-115.7C468,742,468.1,734.9,468.4,727.7z M571.1,895.5	c-5.5-5.2-11-10.8-16.9-16.8c13.5,3.3,27.2,5.8,41,7.6c30.9,4,37.3,9.4,59.7,31.6c2.4,2.4,4.8,4.8,7.2,7.2	c10.5,10.5,21.4,21.4,32.9,31.2c22.4,18.9,22.4,23.2,21.9,24.1c-0.5,0.8-4.1,2.7-29.1-7.8v0C644.7,954.2,605.1,928.1,571.1,895.5	L571.1,895.5z M909.3,468.3c-4.3,3.8-23.7-9.5-39.3-20.2c-33.8-23.1-70.6-41.3-109.5-54c-5.9-2-9.4-4.7-9.3-7.3	c0.1-2.7,4.1-5.3,10.8-7c21.3-4.7,43.1-7.4,64.9-8.1l6.5-0.4c2.3-0.1,4.3-0.2,6.2-0.2c14.8,0,19.1,4.5,26.7,14.2	c12.4,15.3,23.2,31.9,32.4,49.3C911.3,459.1,911.4,466.4,909.3,468.3z M613.5,518.4c6.2-22.2,38.6-35.6,96.3-39.8	c13.6-1,26.1-1.5,38.2-1.5c32,0.2,64,4,95.2,11.2c60.8,13.1,90.7,31.1,95.9,97.8c2.1,24.8,2.2,49.7,0.5,74.5	c-3.5,47.4-15.2,75.1-35.8,84.6c-34.6,15.9-87.3-22.8-133.9-57c-6.8-5-13.2-9.7-19.5-14.2C649.1,601.5,604.4,550.7,613.5,518.4	L613.5,518.4z M885.5,480.1c-2,4.5-24.6-0.1-38.1-2.9c-34.1-7.6-68.9-11.4-103.8-11.6c-12.7,0-25.6,0.5-39.9,1.3	c-65.4,3.6-77.7-6.4-79.3-12.7c-2.7-10.9,20.2-28.3,61.2-46.7c24.1-10.9,40.2-12.2,64-5.3c48.5,14.1,83.2,30.6,112.6,53.4	C883.3,471.8,886.5,477.9,885.5,480.1L885.5,480.1z M676.2,398.9c-8,3.4-16.5,7.4-25.6,11.5c-30.2,13.9-64.4,29.6-70.6,22.3	c-2-2.4-1.8-9,10.7-26.7c13.2-18.8,25.3-19.9,47.3-20.2c2.7,0,5.1-0.1,7.3-0.2c3.2-0.1,6-0.1,8.9-0.1c6.3,0,12.6,0.4,18.9,1.1	c5.6,0.5,9.3,2.5,9.7,5.2C683.2,394.2,680.7,396.9,676.2,398.9L676.2,398.9z M458.7,726.2c-12.1-32.8-20.6-66.9-25.2-101.6	c-2.4-12.3,0.3-25.1,7.6-35.3c13.5-17.7,20.8-22.2,24.8-22.2c0.6,0,1.2,0.1,1.7,0.3c11.2,4.7,3.7,55.8-2.4,96.9	C461.3,690.1,457.7,714.5,458.7,726.2L458.7,726.2z M523,858.5c-1.1-0.4-2.1-0.8-3.1-1.2l0,0c-31.9-11.9-45.8-30.8-49.4-67.5	c-0.6-5.5-1.1-10.2-1.4-14.7C484.1,804.7,502.1,832.6,523,858.5z M1062.9,592.3c16.2,16.1,30.4,34.1,42.4,53.5l1.7-0.6	c-0.1-0.9-0.2-1.8-0.3-2.8c-0.2-2.5-0.5-5.3-0.9-7.6l-0.1-0.3c-11.3-19.2-25-36.9-40.7-52.7c3.8-33,5-47.3,3.1-66.2l-0.1-0.3	c-1.2-2.5-3.4-6.9-5.2-10.3c-0.8-1.6-1.5-3-2.1-4l-1.7,0.5c1.7,15.9,3.5,32.4-1.8,73.8c-16.8-15.6-35.2-29.4-54.8-41.2	c-52.8-31.7-61.8-47.6-91.5-100.3l-3.1-5.5c-9.3-15.7-19.5-30.9-30.6-45.4c-3.9-5.4-5.3-8.7-4.4-10.3c0.8-1.5,4.3-2,10.8-1.5	c21.3,1.2,42.3,5.3,62.5,12.4l0.8-1.6c-4.8-3.3-9.9-6.4-14.9-9.4l-0.8-0.5l-0.2-0.1c-15.7-4.2-31.7-7.2-47.8-9	c-14.4-1.9-24-3.8-37.4-14.9c-1.9-1.6-3.9-3.4-6-5.2c-6.4-5.8-13.1-11.2-20.1-16.3l-3.5-0.7c-2.4-0.5-4.8-0.9-7.2-1.3l-0.6,1.6	c7.6,5.4,14.7,11.5,21.2,18.3c2.4,2.3,4.7,4.6,7.1,6.8c5.3,5,5.9,7.5,5.4,8.7c-0.5,1.3-2.7,2.9-10.4,3.2c-31.6,1.1-63,5.4-93.7,13	c-19.3,4.7-25.4,4.1-45.5,2.2l-1.7-0.2c-12.6-1.2-25.3-1.6-38-1.3c-6.7,0-14.4,0.1-23.6-0.2c-2.9-0.1-4.9-1-5.6-2.8	c-0.6-2.9,0.6-5.9,2.9-7.7c16-16.6,27.9-24.3,49.4-37.6l-0.7-1.6c-5.1,1.1-9.8,2.4-15.3,4l-0.3,0.1c-16.5,11.3-34.1,24.4-47.1,35.2	c-10.2,8.8-22.6,14.5-35.8,16.6c-15.7,3.2-31.1,7.5-46.2,12.9l-0.2,0.1c-3.7,2.8-7.4,5.9-10.6,8.6l0.8,1.6	c16.6-5.5,33.4-10,50.5-13.5c5.2-0.9,8.8-0.2,10.2,2.1c1,2.6,0.4,5.5-1.6,7.5c-33.1,44.7-58.3,72.2-104.5,48.7l-0.6-0.3l-0.5,0.5	c-1,1.2-2,2.5-3.1,3.8l-1.3,1.6l0.4,0.6c28.3,41.6,8.2,71.7-28.3,116.3c-3.2,3.9-5.8,5.7-7.5,5.1c-1-0.4-3.3-2.4-2.9-13.3	c1-19.9,3.5-39.6,7.4-59.1l-1.7-0.6c-2.7,4.8-5.2,9.6-7.5,14l-0.1,0.2c-3.5,16.7-5.8,33.7-7,50.7c-0.2,2.7-0.5,5.4-0.8,8.1	c-0.4,12.3-3.6,24.2-9.5,35c-10.1,19.7-17.4,40.7-21.6,62.4c-0.1,3.8-0.2,6.7-0.2,9.4c0,5,0.1,9.4,0.3,13.6l1.8,0.1	c3.4-23.9,10.8-47,21.9-68.5c3.7-7.1,5.5-8.3,6.4-8.3c0,0,0.1,0,0.1,0c1.7,0.3,3.2,5.2,4.6,14.7c4.8,33.4,13.3,66.2,25.2,97.9	l1.4,3.3c2.1,4.9,4.1,9.8,6.2,14.7c0.1,11.3,0.7,23.2,1.8,36.4c1.3,14.5,2.1,27.7-2.7,30.4c-3.8,2.1-11.3-1.4-23.9-10.9	c-11.2-8.2-21-18.1-29.3-29.3l-1.6,0.8l0.8,3c0.7,2.6,1.4,5.2,2.2,7.7l0.2,0.3c8.7,10.4,18,20.3,27.8,29.7	c19.2,19.1,35.8,35.6,46.5,66c10.1,28.9,24.2,56.1,42,81l0.1,0.2c6.3,5.2,12.4,10,18.6,14.5l1.2-1.3c-21.3-21.7-40.1-63-49.8-91.9	c-5.2-15.4-6.2-23.7-3.1-26.7c3.9-3.8,15.6,0.3,31.9,6.2l0.9,0.3c4.1,1.6,8.3,3,12.4,4.3l1,0.3c9,10.3,18.7,20.3,28.8,29.8	c34.7,33.4,75.1,60.3,119.3,79.4c27.8,11.8,40.6,20.6,40.1,27.5c-0.6,9.6-26.3,17.3-62.5,27.2l-3.2,0.9l3.2,0.9c3,0.8,6,1.5,8.8,2.1	l0.2,0l0.2,0c86.6-20.7,91.8-21.9,171.3-2.3l0.2,0.1l0.2-0.1c1.7-0.5,3.4-1.2,4.9-2.1c1.3-0.6,2.5-1.2,3.9-1.7l3.3-1.1l-3.4-0.6	c-26.5-4.8-49.4-13.5-49.1-18.5c0.1-1.7,3.5-5.6,32.1-6.7c44.3-2.5,87.8-12.2,129-28.8l0.2-0.1c4-2.9,7.8-6.1,11.7-9.2l-0.9-1.5	c-43.7,18.4-90.5,28.3-137.9,29.2c-1.6,0-3.2,0-4.7,0c-20.7,0-33.8-1.4-36.1-7.1c-2-5,4.2-14.1,19.6-28.4	c13.5-12.5,26-26.1,37.5-40.5c3.8-4.7,7.4-9.2,10.9-13.6c50-63,72.8-91.8,145.2-50.6c10.2,5.8,20.1,11,30.6,16.5	c4.5,2.3,9,4.7,13.6,7.1l0.8,0.4l1.3-2.2c0.7-1.2,1.3-2.3,2.1-3.5l0.5-0.8l-4.3-2.8c-12.2-7.9-24.9-16.2-38.3-24.1	c-28.8-18.9-43.6-35.8-46.6-53.4c-4-23,11.9-46.2,34.8-76.6c1-1.4,2.1-2.9,3.3-4.5c8.2-11.1,19.3-26.2,28.1-26.2c0.3,0,0.6,0,1,0.1	c3.5,0.5,6.5,3.7,8.9,9.7c20.6,52.9,24.3,105.5,12.3,176l1.7,0.6c1-1.7,1.9-3.4,2.9-5.1c1.7-2.8,3.4-5.8,4.9-8.7l0.1-0.3	c10.2-55.4,6-112.6-12.2-165.9c-9.6-29.5-3.4-52.2,3.8-78.5C1059.1,608,1061.1,600.4,1062.9,592.3L1062.9,592.3z" class="st2"/><path d="M464.3,638.7c2.9-2.2,5.9-4.4,9-6.8c3.2-2.5,6.7-4.6,10.4-6.3c4.1-1.9,8.4-3.4,12.8-4.5	c5.4-1.3,10.9-1.9,16.4-1.8c6.1-0.1,12.2,0.9,18,3.1c4.7,1.8,9,4.7,12.6,8.3c3.3,3.4,5.8,7.3,7.6,11.7c1.6,4.1,2.5,8.5,2.5,12.9v7.2	h-23.7c-12.2-0.1-24.4,1-36.5,3.1c-10.4,1.7-20.5,5.1-29.8,10.1c-8.1,4.3-15,10.5-20.1,18.2c-4.9,7.4-7.4,16.7-7.4,27.7	c-0.2,7.6,1.4,15.2,4.7,22.1c3,6.2,7.4,11.7,12.8,16c5.6,4.4,12,7.7,18.9,9.7c7.4,2.2,15,3.3,22.7,3.2c12.9,0,24.3-2.3,34.2-6.8	c9.8-4.6,18.3-12.3,25.5-23.4h0.7c0,8.6,0.4,17.3,1.1,25.9h28.8c-0.5-4.6-0.8-9.3-1.1-14.4c-0.2-5-0.4-10.5-0.4-16.5v-87	c0-7.3-1.4-14.6-4.1-21.4c-2.8-6.9-7.2-13.1-12.8-18.2c-5.8-5.3-13.1-9.5-22.1-12.6c-9-3.1-19.7-4.7-32.2-4.7	c-12.3,0-24.4,2.2-36,6.3c-11.7,4-22.5,10.5-31.6,18.9L464.3,638.7z M553.5,686.1v10.8c0,5.9-0.9,11.8-2.5,17.4	c-1.7,5.8-4.5,11.3-8.3,16c-4.1,5-9.2,9-15.1,11.7c-6.2,3-13.8,4.5-22.7,4.5c-11.3,0-20.2-2.2-26.8-6.5c-6.6-4.3-9.9-11.4-9.9-21.2	c0-6.7,2.1-12.2,6.3-16.5c4.6-4.5,10.1-8,16.2-10.1c7.1-2.5,14.5-4.1,21.9-4.9c7.8-0.8,15.7-1.2,23.6-1.3H553.5z M777.1,620.7	c-8.2-9-18.3-15.9-29.7-20.3c-11.4-4.4-23.5-6.7-35.8-6.7c-13.4,0-25.6,2.2-36.5,6.7c-21.4,8.4-38.1,25.4-46.2,46.9	c-4.4,11.6-6.6,23.9-6.5,36.3c-0.2,12.3,2,24.6,6.5,36.1c4.1,10.5,10.3,20.1,18.3,28c8.1,7.9,17.7,14.1,28.2,18.2	c11.5,4.4,23.8,6.6,36.1,6.5c12.1,0.1,24.1-2,35.4-6.1c11.3-4.2,21.4-11.1,29.3-20.1l-23-23c-5,5.8-11.1,10.7-18,14.2	c-6.5,3.2-14.3,4.9-23.4,4.9c-7.8,0.1-15.5-1.4-22.7-4.5c-6.6-2.9-12.4-7.1-17.3-12.4c-4.9-5.4-8.7-11.7-11.1-18.5	c-2.7-7.2-4-14.8-4-22.5c0-7.7,1.1-15.4,3.4-22.8c2.1-7,5.5-13.6,10.1-19.4c4.4-5.6,10.1-10.2,16.5-13.3c6.6-3.2,14.3-4.9,23.2-4.9	c9.1,0,17,1.6,23.6,4.9c7.1,3.6,13.5,8.4,18.9,14.2L777.1,620.7z M804.1,768.1h32.4v-88.5c0-9.6,1.2-17.9,3.6-25	c2-6.4,5.3-12.3,9.7-17.4c3.9-4.4,8.8-7.9,14.2-10.2c5.3-2.3,11-3.4,16.7-3.4c7.9,0,14.2,1.4,18.9,4.1c4.6,2.7,8.4,6.7,10.8,11.5	c2.7,5.5,4.4,11.4,5,17.4c0.9,7.4,1.3,14.8,1.3,22.3v89.2H949V675c0-15.1,3.4-27.4,10.1-37c6.7-9.6,17.9-14.4,33.4-14.4	c7.9,0,14.3,1.4,19.1,4.1c4.6,2.6,8.5,6.4,11.1,11c2.7,4.9,4.5,10.3,5.2,15.8c0.9,6.2,1.3,12.4,1.3,18.7v94.9h32.4v-99.2	c0-9.4-0.9-18.7-2.7-27.9c-1.6-8.6-5-16.8-9.9-24.1c-5-7.3-11.8-13.2-19.8-17.1c-8.4-4.3-19.2-6.5-32.4-6.5	c-10.7,0.1-21.2,2.8-30.6,7.9c-10.1,5.3-18.2,13.6-23.4,23.7c-5.5-10.5-12.6-18.5-21.2-23.7c-8.6-5.3-19.3-7.9-32-7.9	c-7.2-0.1-14.3,1.1-21,3.4c-5.9,2-11.4,4.8-16.5,8.3c-4.3,2.9-8.2,6.3-11.5,10.2c-3,3.6-4.9,6.6-5.6,9h-0.7v-26.6h-30.2V768.1z" class="st0"/></svg>